<svg width="918" height="450" viewBox="0 0 918 450" fill="none" xmlns="http://www.w3.org/2000/svg">
<rect width="917.213" height="450" rx="50" fill="#FEF3E2"/>
<path d="M18.0039 67.6C18.0039 62.2981 22.302 58 27.6039 58H153.574C157.043 58 160.243 59.8718 161.943 62.8961L190.3 113.345H354.591C359.893 113.345 364.191 117.643 364.191 122.945V382.074C364.191 387.376 359.893 391.674 354.591 391.674H27.6039C22.302 391.674 18.0039 387.376 18.0039 382.074V67.6Z" fill="#E8A113"/>
<path d="M365.844 382.629L410.13 183.341C411.28 178.165 407.914 173.97 402.613 173.97H76.0512C70.7492 173.97 65.5188 178.165 64.3686 183.341L20.0825 382.629C18.9324 387.804 22.298 392 27.6 392H354.161C359.463 392 364.694 387.804 365.844 382.629Z" fill="#FFC431"/>
<path d="M90.0068 271.804L76.4633 332.75H94.0617L106.151 278.349C106.151 278.349 156.687 239.491 229.978 241.536C304.178 239.491 337.443 278.349 337.443 278.349L325.354 332.75H342.953L356.496 271.804C356.496 271.804 327.562 224.766 233.704 224.766C139.847 224.766 90.0068 271.804 90.0068 271.804Z" fill="#FA812F"/>
<path d="M135.158 235.732C135.999 231.945 139.826 228.876 143.705 228.876H146.046C149.926 228.876 152.388 231.945 151.547 235.732L138.172 295.918H121.783L135.158 235.732Z" fill="#FFB22C"/>
<path d="M192.393 220.495C193.235 216.708 197.061 213.639 200.941 213.639H203.282C207.161 213.639 209.623 216.708 208.782 220.495L188.635 311.155H172.246L192.393 220.495Z" fill="#FFB22C"/>
<path d="M246.242 220.495C247.084 216.708 250.911 213.639 254.79 213.639H257.131C261.01 213.639 263.473 216.708 262.631 220.495L242.485 311.155H226.096L246.242 220.495Z" fill="#FFB22C"/>
<path d="M296.706 235.732C297.547 231.945 301.374 228.876 305.253 228.876H307.595C311.474 228.876 313.936 231.945 313.095 235.732L299.72 295.918H283.331L296.706 235.732Z" fill="#FFB22C"/>
<path d="M89.5213 362.609C112.179 351.156 148.453 318.025 212.98 318.025C277.507 318.025 299.056 351.156 316.624 362.609C334.191 374.062 365.149 347.884 354.574 329.477C340.392 304.792 294.337 272.213 223.16 272.213C151.984 272.213 91.4498 304.792 66.2963 329.477C47.5407 347.884 66.8638 374.062 89.5213 362.609Z" fill="#FEF3E2"/>
<path d="M436.046 87.913L491.219 86.959C501.289 86.747 508.709 88.867 513.479 93.319C518.355 97.665 520.793 104.608 520.793 114.148V187.765C520.793 197.411 518.302 204.407 513.32 208.753C508.338 212.993 500.759 215.06 490.583 214.954L436.046 214V87.913ZM456.08 104.449V197.464H497.897C499.593 197.464 500.441 196.616 500.441 194.92V106.993C500.441 105.297 499.593 104.449 497.897 104.449H456.08ZM561.701 215.431C553.751 215.431 547.921 213.894 544.211 210.82C540.607 207.64 538.805 202.022 538.805 193.966V179.656C538.805 171.176 540.713 165.293 544.529 162.007C548.451 158.615 554.917 156.919 563.927 156.919H588.89V134.818C588.89 133.44 588.201 132.751 586.823 132.751L544.688 132.91V116.533H582.53C591.646 116.427 598.218 118.176 602.246 121.78C606.274 125.278 608.288 131.426 608.288 140.224V214H590.957L589.367 203.029C588.519 207.163 586.664 210.29 583.802 212.41C581.046 214.424 577.071 215.431 571.877 215.431H561.701ZM588.89 199.849V170.911H559.952C558.574 170.911 557.885 171.6 557.885 172.978V197.623C557.885 199.107 558.574 199.849 559.952 199.849H588.89ZM675.267 131.797H652.53V195.715C652.53 197.093 653.219 197.782 654.597 197.782H675.267V214H660.48C650.94 214 643.997 212.145 639.651 208.435C635.411 204.725 633.291 198.524 633.291 189.832V131.797H621.843V116.692H633.291V91.888H652.53V116.692H675.267V131.797ZM705.019 215.431C697.069 215.431 691.239 213.894 687.529 210.82C683.925 207.64 682.123 202.022 682.123 193.966V179.656C682.123 171.176 684.031 165.293 687.847 162.007C691.769 158.615 698.235 156.919 707.245 156.919H732.208V134.818C732.208 133.44 731.519 132.751 730.141 132.751L688.006 132.91V116.533H725.848C734.964 116.427 741.536 118.176 745.564 121.78C749.592 125.278 751.606 131.426 751.606 140.224V214H734.275L732.685 203.029C731.837 207.163 729.982 210.29 727.12 212.41C724.364 214.424 720.389 215.431 715.195 215.431H705.019ZM732.208 199.849V170.911H703.27C701.892 170.911 701.203 171.6 701.203 172.978V197.623C701.203 199.107 701.892 199.849 703.27 199.849H732.208ZM490.583 355.795L436.046 355V228.913L488.198 228.118C497.95 227.906 505.317 230.132 510.299 234.796C515.387 239.354 517.931 246.138 517.931 255.148V271.207C517.931 280.323 514.592 286.736 507.914 290.446C512.26 292.142 515.493 294.739 517.613 298.237C519.733 301.629 520.793 306.134 520.793 311.752V328.447C520.793 337.245 518.196 344.029 513.002 348.799C507.914 353.569 500.441 355.901 490.583 355.795ZM494.876 245.29H456.08V282.655H494.876C496.678 282.655 497.579 281.807 497.579 280.111V247.834C497.579 246.138 496.678 245.29 494.876 245.29ZM497.897 299.191H456.08V338.464H497.897C499.593 338.464 500.441 337.616 500.441 335.92V301.735C500.441 300.039 499.593 299.191 497.897 299.191ZM589.053 256.261V271.843H565.044C563.56 271.843 562.818 272.585 562.818 274.069L562.977 355H543.897L543.579 257.692H560.751L562.182 267.55C564.302 260.024 570.185 256.261 579.831 256.261H589.053ZM601.382 240.361V222.553H620.78V240.361H601.382ZM601.382 355V257.692H620.78V355H601.382ZM712.725 221.122V355H695.712L693.804 343.87C692.956 348.004 691.101 351.131 688.239 353.251C685.483 355.371 681.508 356.431 676.314 356.431H665.184C657.234 356.431 651.404 354.894 647.694 351.82C644.09 348.64 642.288 343.022 642.288 334.966V279.793C642.288 271.313 644.196 265.43 648.012 262.144C651.934 258.752 658.4 257.109 667.41 257.215L693.327 257.374V221.122H712.725ZM663.435 340.849H691.26C692.638 340.849 693.327 340.107 693.327 338.623V272.956L663.435 272.638C662.057 272.638 661.368 273.38 661.368 274.864V338.623C661.368 340.107 662.057 340.849 663.435 340.849ZM784.162 375.829V345.778C783.102 349.382 781.194 352.085 778.438 353.887C775.682 355.583 771.919 356.431 767.149 356.431H756.019C748.069 356.431 742.239 354.894 738.529 351.82C734.925 348.64 733.123 343.022 733.123 334.966V279.793C733.123 271.313 735.031 265.377 738.847 261.985C742.769 258.593 749.235 257.003 758.245 257.215L803.56 257.692V369.946C803.56 378.744 801.387 384.998 797.041 388.708C792.801 392.418 785.911 394.273 776.371 394.273H736.144V378.055H782.095C783.473 378.055 784.162 377.313 784.162 375.829ZM754.27 340.849H782.095C783.473 340.849 784.162 340.107 784.162 338.623V273.433L754.27 273.274C752.892 273.274 752.203 273.963 752.203 275.341V338.623C752.203 340.107 752.892 340.849 754.27 340.849ZM848.826 356.113C839.18 356.113 832.184 354.258 827.838 350.548C823.598 346.838 821.478 340.584 821.478 331.786V279.475C821.478 270.677 823.333 264.635 827.043 261.349C830.753 257.957 837.113 256.261 846.123 256.261H865.68C874.796 256.261 881.262 257.957 885.078 261.349C889 264.635 890.961 270.677 890.961 279.475V317.476H840.876V337.828C840.876 339.206 841.565 339.895 842.943 339.895H888.417V356.113H848.826ZM842.943 271.843C841.565 271.843 840.876 272.585 840.876 274.069V303.484H871.722V274.069C871.722 272.585 871.033 271.843 869.655 271.843H842.943Z" fill="#FA812F"/>
</svg>
